<?xml version="1.0" encoding="UTF-8"?>
<!DOCTYPE svg PUBLIC "-//W3C//DTD SVG 1.1//EN" "http://www.w3.org/Graphics/SVG/1.1/DTD/svg11.dtd">
<svg version="1.1" xmlns="http://www.w3.org/2000/svg" xmlns:xlink="http://www.w3.org/1999/xlink" x="0" y="0" width="268" height="48" viewBox="0, 0, 268, 48">
  <g id="Layer_1">
    <path d="M46.798,9.545 C46.012,6.37 43.438,-0.056 24.23,-0.056 C5.171,-0.056 2.444,6.37 1.656,9.551 C-0.566,18.658 -0.405,25.787 1.156,35.145 C1.971,40.019 6.086,47 24.229,47 C42.929,47 46.453,39.898 47.412,35.145 C49.253,26.038 49.023,18.659 46.798,9.545 M4.118,14.607 L12.293,28.978 C12.404,29.174 12.614,29.297 12.84,29.297 C13.065,29.297 13.274,29.173 13.386,28.978 L23.594,11.203 C23.596,11.201 23.596,11.199 23.598,11.198 C23.711,11.003 23.916,10.884 24.144,10.884 C24.366,10.884 24.574,11.006 24.684,11.204 L34.818,28.963 C34.926,29.151 35.138,29.276 35.357,29.276 C35.582,29.28 35.791,29.158 35.907,28.97 L44.333,14.574 C45.144,19.571 45.278,24.676 44.71,29.705 L3.742,29.705 C3.184,24.687 3.313,19.595 4.118,14.607 M24.229,3.341 C40.388,3.581 42.522,7.62 43.248,9.692 L35.947,22.172 L35.945,22.174 C35.832,22.37 35.622,22.485 35.398,22.483 C35.173,22.483 34.97,22.362 34.857,22.168 L24.697,4.354 C24.584,4.156 24.374,4.04 24.153,4.04 C24.01,4.04 23.836,4.106 23.709,4.223 C23.667,4.262 23.629,4.309 23.6,4.36 L13.422,22.091 C13.379,22.167 13.317,22.233 13.242,22.284 C13.092,22.386 12.895,22.445 12.851,22.445 C12.626,22.445 12.417,22.321 12.307,22.13 L5.216,9.669 C6.088,7.828 9.821,3.128 24.229,3.341 M4.232,33.101 L21.9,33.101 C22.249,33.101 22.529,33.383 22.529,33.733 L22.529,43.544 C5.171,43.98 4.44,34.272 4.232,33.101 M25.929,43.543 L25.929,33.732 C25.929,33.382 26.211,33.1 26.559,33.1 L44.227,33.1 C44.02,34.269 43.538,44.16 25.929,43.543" fill="#142C2D"/>
    <path d="M60.748,14.372 L62.924,14.372 L67.948,34.5 L71.596,34.5 L76.012,18.468 C76.236,17.668 76.3,16.676 76.3,16.676 L76.428,16.676 C76.428,16.676 76.492,17.668 76.716,18.468 L81.132,34.5 L84.78,34.5 L89.836,14.372 L92.012,14.372 L92.012,11.908 L83.948,11.908 L83.948,14.372 L86.636,14.372 L83.116,29.188 C82.956,29.988 82.892,30.884 82.892,30.884 L82.764,30.884 C82.764,30.884 82.668,29.988 82.444,29.188 L77.74,11.908 L75.02,11.908 L70.284,29.188 C70.092,29.988 69.964,30.884 69.964,30.884 L69.868,30.884 C69.868,30.884 69.772,29.988 69.612,29.188 L66.092,14.372 L68.78,14.372 L68.78,11.908 L60.748,11.908 z" fill="#142C2D"/>
    <path d="M91.404,34.5 L99.244,34.5 L99.244,32.004 L96.812,32.004 L98.572,26.98 L106.572,26.98 L108.332,32.004 L105.932,32.004 L105.932,34.5 L113.772,34.5 L113.772,32.004 L111.596,32.004 L104.396,11.908 L100.78,11.908 L93.58,32.004 L91.404,32.004 z M99.372,24.42 L102.156,16.58 C102.444,15.652 102.54,14.852 102.54,14.852 L102.636,14.852 C102.636,14.852 102.7,15.652 103.02,16.58 L105.772,24.42 z" fill="#142C2D"/>
    <path d="M115.852,34.5 L132.556,34.5 L132.556,28.228 L129.74,28.228 L129.74,31.876 L121.868,31.876 L121.868,14.532 L124.716,14.532 L124.716,11.908 L115.852,11.908 L115.852,14.532 L118.668,14.532 L118.668,32.004 L115.852,32.004 z" fill="#142C2D"/>
    <path d="M135.18,34.5 L151.884,34.5 L151.884,28.228 L149.068,28.228 L149.068,31.876 L141.196,31.876 L141.196,14.532 L144.044,14.532 L144.044,11.908 L135.18,11.908 L135.18,14.532 L137.996,14.532 L137.996,32.004 L135.18,32.004 z" fill="#142C2D"/>
    <path d="M157.324,34.5 L166.22,34.5 L166.22,32.004 L163.372,32.004 L163.372,24.932 L169.708,14.372 L171.852,14.372 L171.852,11.908 L164.14,11.908 L164.14,14.372 L166.476,14.372 L162.284,21.476 C161.996,21.956 161.804,22.436 161.804,22.436 L161.74,22.436 C161.74,22.436 161.548,21.956 161.292,21.476 L157.1,14.372 L159.468,14.372 L159.468,11.908 L151.692,11.908 L151.692,14.372 L153.836,14.372 L160.172,24.932 L160.172,32.004 L157.324,32.004 z" fill="#142C2D"/>
    <path d="M186.348,34.5 L195.244,34.5 L195.244,32.004 L192.396,32.004 L192.396,14.532 L197.708,14.532 L197.708,18.052 L200.492,18.052 L200.492,11.908 L181.1,11.908 L181.1,18.052 L183.884,18.052 L183.884,14.532 L189.196,14.532 L189.196,32.004 L186.348,32.004 z" fill="#142C2D"/>
    <path d="M203.116,34.5 L220.012,34.5 L220.012,29.156 L217.228,29.156 L217.228,31.876 L209.132,31.876 L209.132,24.42 L217.132,24.42 L217.132,21.796 L209.132,21.796 L209.132,14.532 L216.684,14.532 L216.684,17.156 L219.468,17.156 L219.468,11.908 L203.116,11.908 L203.116,14.372 L205.932,14.372 L205.932,32.004 L203.116,32.004 z" fill="#142C2D"/>
    <path d="M223.34,34.5 L240.236,34.5 L240.236,29.156 L237.452,29.156 L237.452,31.876 L229.356,31.876 L229.356,24.42 L237.356,24.42 L237.356,21.796 L229.356,21.796 L229.356,14.532 L236.908,14.532 L236.908,17.156 L239.692,17.156 L239.692,11.908 L223.34,11.908 L223.34,14.372 L226.156,14.372 L226.156,32.004 L223.34,32.004 z" fill="#142C2D"/>
    <path d="M243.564,27.716 L243.564,30.084 C243.564,33.316 247.5,34.884 251.02,34.884 C255.212,34.884 258.732,32.644 258.732,28.324 C258.732,24.132 255.436,22.852 252.108,21.604 C249.58,20.644 247.308,19.844 247.308,17.444 C247.308,15.364 249.068,14.34 251.276,14.34 C253.132,14.34 255.148,15.044 255.148,16.356 L255.148,17.924 L258.124,17.924 L258.124,15.268 C258.124,12.804 254.668,11.524 251.276,11.524 C247.468,11.524 244.044,13.348 244.044,17.604 C244.044,21.604 247.084,22.884 250.06,24.004 C252.844,25.092 255.5,25.956 255.5,28.58 C255.5,30.82 253.612,32.036 251.02,32.036 C248.652,32.036 246.508,31.044 246.508,29.38 L246.508,27.716 z" fill="#142C2D"/>
  </g>
</svg>
