<svg xmlns="http://www.w3.org/2000/svg" version="1.1" id="Layer_1" x="0px" y="0px" width="50px" height="50px" viewBox="0 0 50 50" enable-background="new 0 0 50 50" xml:space="preserve"><path fill-rule="evenodd" clip-rule="evenodd" fill="#142C2D" d="M48.078 10.86C47.271 7.598 44.626 1 24.899 1 5.327 1 2.526 7.598 1.717 10.868c-2.283 9.354-2.116 16.675-0.513 26.29 0.834 4.999 5.062 12.171 23.695 12.171 19.207 0 22.825-7.294 23.809-12.171C50.599 27.798 50.363 20.222 48.078 10.86M4.245 16.059l8.395 14.758c0.115 0.201 0.333 0.328 0.561 0.328 0.232 0 0.447-0.124 0.562-0.325l10.486-18.257c0.001-0.003 0.001-0.003 0.003-0.006 0.117-0.197 0.328-0.322 0.562-0.322 0.225 0 0.439 0.126 0.556 0.328L35.772 30.8c0.113 0.197 0.331 0.325 0.556 0.325 0.231 0.003 0.445-0.119 0.563-0.319l8.652-14.783c0.834 5.132 0.972 10.375 0.392 15.542H3.859C3.283 26.411 3.418 21.181 4.245 16.059M24.899 4.489c16.596 0.246 18.789 4.395 19.535 6.525L36.933 23.83v0.001c-0.117 0.201-0.332 0.32-0.56 0.317 -0.23 0-0.443-0.124-0.559-0.323L25.38 5.531c-0.115-0.205-0.331-0.325-0.561-0.325 -0.144 0-0.323 0.068-0.453 0.188 -0.046 0.041-0.085 0.088-0.114 0.142L13.798 23.746c-0.044 0.08-0.106 0.147-0.182 0.197 -0.155 0.105-0.355 0.167-0.404 0.167 -0.229 0-0.446-0.126-0.558-0.325L5.371 10.989C6.269 9.097 10.102 4.271 24.899 4.489M4.363 35.056h18.145c0.356 0 0.646 0.287 0.646 0.648v10.077C5.327 46.227 4.574 36.256 4.363 35.056M26.644 45.781V35.704c0-0.361 0.29-0.648 0.646-0.648h18.148C45.226 36.253 44.73 46.411 26.644 45.781"/><path fill="none" d="M-7-253"/><path fill="none" d="M-7 300"/></svg>